<svg width="85" height="85" viewBox="0 0 85 85" fill="none" xmlns="http://www.w3.org/2000/svg">
<g clip-path="url(#clip0_352_152)">
<path d="M67.5919 84.1494C63.9626 84.1494 58.864 82.8366 51.2292 78.5712C41.9453 73.3648 34.7644 68.5584 25.5304 59.3487C16.6277 50.4515 12.2953 44.6911 6.23184 33.6572C-0.618099 21.1994 0.549589 14.6691 1.85487 11.8783C3.40931 8.54257 5.70378 6.54738 8.66957 4.56705C10.354 3.46347 12.1367 2.51731 13.9948 1.7408C14.1808 1.66094 14.3536 1.58461 14.508 1.51591C15.4285 1.10118 16.823 0.474656 18.5894 1.14403C19.7683 1.58656 20.8207 2.49199 22.4681 4.11903C25.8466 7.45103 30.4636 14.8717 32.1668 18.5163C33.3104 20.9724 34.067 22.594 34.069 24.4124C34.069 26.5415 32.998 28.1832 31.6982 29.9553C31.4547 30.288 31.2128 30.6059 30.9787 30.9148C29.5635 32.7741 29.253 33.3116 29.4576 34.2708C29.8723 36.1991 32.9643 41.9391 38.0463 47.0097C43.1279 52.0803 48.7024 54.9772 50.638 55.39C51.6383 55.6039 52.1867 55.2804 54.1058 53.815C54.381 53.605 54.6636 53.3875 54.9592 53.1701C56.9414 51.6955 58.507 50.6523 60.5858 50.6523H60.597C62.4062 50.6523 63.955 51.4369 66.5209 52.7311C69.8678 54.4194 77.5118 58.9768 80.8643 62.3591C82.4951 64.0026 83.4042 65.0515 83.8487 66.2284C84.5182 68.0004 83.8878 69.3893 83.4768 70.3192C83.4081 70.4734 83.332 70.6427 83.2517 70.8304C82.4694 72.6853 81.5177 74.4641 80.4089 76.1447C78.4324 79.1012 76.4298 81.3901 73.0865 82.9464C71.3698 83.7585 69.491 84.1697 67.5919 84.1494Z" fill="#FDC2D6"/>
</g>
<defs>
<clipPath id="clip0_352_152">
<rect width="85" height="85" fill="white"/>
</clipPath>
</defs>
</svg>
