<svg width="85" height="85" viewBox="0 0 85 85" fill="none" xmlns="http://www.w3.org/2000/svg">
<g clip-path="url(#clip0_352_159)">
<path fill-rule="evenodd" clip-rule="evenodd" d="M7.58635 37.4249L22.1171 46.7324V69.1202H9.32174C8.35031 69.1202 7.58635 68.3394 7.58635 67.405V37.4249ZM22.8792 10.6578C13.0138 4.33873 -0.00292969 11.3802 -0.00292969 23.123V67.405C-0.00292969 72.5566 4.18483 76.7094 9.32174 76.7094H25.9117C28.0075 76.7094 29.7064 75.0107 29.7064 72.9148V51.5935L40.4551 58.4784C41.7026 59.2775 43.301 59.2775 44.5485 58.4784L55.2951 51.5949V72.9148C55.2951 75.0107 56.994 76.7094 59.0897 76.7094H75.6798C80.8168 76.7094 85.0043 72.5566 85.0043 67.405V30.6133C85.0055 30.5716 85.0067 30.5299 85.0067 30.488V23.123C85.0067 14.4187 77.8546 8.29757 70.1354 8.28615C67.4402 8.28178 64.6759 9.02231 62.1223 10.6578L57.043 13.9112C57.0171 13.9278 56.9915 13.9447 56.9661 13.9618L42.5018 23.2267L27.9585 13.9112L22.8792 10.6578ZM55.2951 24.0448L44.5485 30.9284C43.301 31.7275 41.7026 31.7275 40.4551 30.9284L29.7064 24.0435V42.5809L42.5018 50.7767L55.2951 42.5822V24.0448ZM62.8843 46.7337L77.415 37.4263V67.405C77.415 68.3394 76.6512 69.1202 75.6798 69.1202H62.8843V46.7337Z" fill="#FDC2D6"/>
</g>
<defs>
<clipPath id="clip0_352_159">
<rect width="85" height="85" fill="white"/>
</clipPath>
</defs>
</svg>
