<svg width="1920" height="1077" viewBox="0 0 1920 1077" fill="none" xmlns="http://www.w3.org/2000/svg">
<path d="M-664 237.536C-582.676 265.94 -505.586 292.575 -415.531 310.502C-276.748 338.128 -106.218 374.496 42.5592 359.962C154.564 349.02 234.965 299.728 309.643 252.717C409.38 189.932 502.933 118.564 626.098 71.5272C759.848 20.448 905.929 31.3584 1005.68 104.827C1140.22 216.02 1074.14 348.895 1032.08 400.682C946.625 505.926 772.875 579.874 744.262 700.794C714.972 824.578 761.749 1006.76 1016.2 1026.45C1161.25 1037.67 1325.14 998.373 1460.53 974.048C1600.23 948.951 1756.06 904.207 1905.67 908.918C2167.65 917.166 2393.12 1026.17 2592 1119" stroke="#98A869" stroke-width="80" stroke-linecap="square"/>
</svg>
