<svg width="180" height="189" viewBox="0 0 180 189" fill="none" xmlns="http://www.w3.org/2000/svg">
<path d="M90.8891 2.37628C79.1791 7.39482 79.1791 44.1975 79.1791 44.1975C79.1791 44.1975 79.2124 45.8714 77.5395 45.8714C75.8667 45.8714 47.3033 18.4678 35.672 19.1058C24.0408 19.7439 52.579 68.136 47.382 64.2727C47.382 64.2727 2.21503 57.5813 2.21503 60.927C2.21503 64.2727 35.672 92.7111 35.672 92.7111C35.672 92.7111 -1.13066 112.785 2.21503 119.477C5.56073 126.168 47.382 126.168 47.382 126.168C47.382 126.168 27.3078 164.644 35.672 167.989C44.0363 171.335 72.4878 146.242 72.4878 146.242C73.6543 168.021 84.1846 191.409 90.8891 186.391C97.5935 181.372 102.599 146.242 102.599 146.242C102.599 146.242 139.402 179.699 142.747 173.008C146.093 166.316 132.71 126.168 132.71 126.168C132.71 126.168 169.513 131.187 172.859 126.168C176.204 121.15 142.747 97.7297 142.747 97.7297C147.388 97.2352 180.255 73.8511 177.877 70.9641C175.5 68.0772 136.056 67.6184 136.056 67.6184C136.056 67.6184 157.803 19.1058 142.747 22.4515C127.692 25.7972 107.618 44.1975 107.618 44.1975C107.618 44.1975 102.599 -2.64226 90.8891 2.37628Z" fill="#FDC2D6" stroke="#FDC2D6" stroke-width="3.34569"/>
<path d="M75.6052 102.186C80.3327 106.281 83.9693 110.32 90.6606 108.693C97.3519 107.067 99.0551 102.133 99.0247 95.6796" stroke="black" stroke-width="3.34569"/>
<ellipse cx="62.2226" cy="97.3524" rx="6.69139" ry="5.01854" fill="black"/>
<ellipse cx="105.717" cy="87.3154" rx="6.69139" ry="5.01854" fill="black"/>
</svg>
