<svg width="92" height="92" viewBox="0 0 92 92" fill="none" xmlns="http://www.w3.org/2000/svg">
<g clip-path="url(#clip0_352_164)">
<path d="M26.8227 0.320559C21.9511 0.550247 18.6245 1.32783 15.716 2.47016C12.7064 3.6434 10.155 5.21726 7.61664 7.76481C5.07863 10.3124 3.51507 12.8653 2.35061 15.8802C1.22353 18.7944 0.459687 22.1241 0.244498 26.9983C0.0293084 31.8725 -0.0183842 33.4395 0.00565287 45.8732C0.0293084 58.3061 0.0842504 59.8647 0.320424 64.7491C0.553165 69.6195 1.32769 72.9454 2.47041 75.8547C3.64556 78.8646 5.21751 81.4149 7.7662 83.954C10.3145 86.4932 12.8655 88.0529 15.8873 89.2193C18.7992 90.3448 22.1297 91.1121 27.0031 91.3254C31.8766 91.5391 33.4451 91.5887 45.8749 91.5646C58.3048 91.541 59.8699 91.4857 64.7528 91.2541C69.6366 91.0225 72.9445 90.2422 75.8549 89.1048C78.8649 87.9274 81.417 86.3577 83.9543 83.8087C86.4915 81.2592 88.0539 78.7044 89.2176 75.6879C90.3459 72.776 91.1124 69.4459 91.3237 64.5759C91.5374 59.6888 91.5878 58.1286 91.5641 45.6973C91.5401 33.2655 91.484 31.7069 91.2524 26.8243C91.0208 21.9417 90.2451 18.6261 89.1032 15.715C87.9265 12.705 86.3561 10.1567 83.8089 7.61563C81.2614 5.07456 78.7043 3.5133 75.6893 2.35227C72.7751 1.22481 69.4469 0.456769 64.5735 0.246158C59.7001 0.0355474 58.1316 -0.019013 45.6971 0.00540564C33.2627 0.0290612 31.706 0.082477 26.8227 0.320559ZM27.3576 83.0887C22.8936 82.8945 20.4696 82.1528 18.8542 81.532C16.7153 80.7079 15.1914 79.7117 13.5817 78.1172C11.9716 76.5231 10.983 74.9939 10.1478 72.8596C9.52053 71.2441 8.76508 68.8229 8.55637 64.3588C8.32936 59.5342 8.28167 58.0855 8.25496 45.8617C8.22825 33.6383 8.27518 32.1911 8.48655 27.3646C8.67732 22.9044 9.42362 20.4778 10.0432 18.8631C10.8674 16.7215 11.8601 15.2003 13.458 13.5917C15.0559 11.9827 16.5806 10.9919 18.7168 10.1567C20.3307 9.52677 22.7516 8.7778 27.2137 8.56528C32.0421 8.33636 33.489 8.29057 45.7109 8.26387C57.9328 8.23716 59.3834 8.28294 64.2137 8.49584C68.6739 8.68967 71.1017 9.42871 72.7144 10.0525C74.8541 10.8767 76.3772 11.8664 77.9858 13.4673C79.5948 15.0675 80.5864 16.5868 81.4216 18.7276C82.0523 20.3366 82.8016 22.7567 83.0122 27.2219C83.2419 32.0503 83.2942 33.4982 83.316 45.719C83.3381 57.9398 83.295 59.3912 83.0832 64.2161C82.8886 68.6802 82.1484 71.1049 81.5265 72.7222C80.7024 74.8604 79.7092 76.385 78.1102 77.9928C76.5115 79.601 74.9888 80.5915 72.8514 81.4267C71.2398 82.0559 68.8159 82.8067 64.3576 83.0192C59.5288 83.2463 58.082 83.294 45.8555 83.3207C33.629 83.3474 32.186 83.2978 27.3576 83.0887ZM64.6826 21.3145C64.6844 22.4012 65.0085 23.463 65.6138 24.3656C66.2191 25.2681 67.0785 25.9709 68.0833 26.385C69.088 26.7991 70.193 26.9059 71.2585 26.692C72.324 26.478 73.3021 25.9529 74.0691 25.183C74.8361 24.4131 75.3575 23.4331 75.5675 22.3668C75.7775 21.3005 75.6665 20.1959 75.2486 19.1927C74.8308 18.1895 74.1248 17.3328 73.2199 16.7309C72.3151 16.1289 71.2521 15.8089 70.1654 15.8111C68.7086 15.8142 67.3127 16.3956 66.2845 17.4276C65.2564 18.4596 64.6802 19.8577 64.6826 21.3145ZM22.2762 45.8308C22.3018 58.8154 32.8472 69.3173 45.8288 69.2929C58.8111 69.2681 69.3203 58.7238 69.2958 45.7392C69.271 32.7546 58.7233 22.2496 45.7395 22.2752C32.7556 22.3008 22.2518 32.8477 22.2762 45.8308ZM30.5232 45.8144C30.5173 42.796 31.4065 39.8435 33.0785 37.3305C34.7505 34.8174 37.1302 32.8566 39.9166 31.696C42.703 30.5353 45.7709 30.227 48.7326 30.81C51.6942 31.393 54.4164 32.8411 56.555 34.9712C58.6936 37.1014 60.1525 39.8178 60.7473 42.7771C61.3421 45.7364 61.046 48.8055 59.8964 51.5965C58.7469 54.3875 56.7955 56.7749 54.2891 58.4569C51.7827 60.1389 48.8339 61.0399 45.8154 61.0459C43.8111 61.0501 41.8257 60.6595 39.9724 59.8962C38.1191 59.133 36.4343 58.0122 35.0143 56.5978C33.5942 55.1834 32.4667 53.503 31.6961 51.6528C30.9255 49.8026 30.527 47.8187 30.5232 45.8144Z" fill="#334075"/>
</g>
<defs>
<clipPath id="clip0_352_164">
<rect width="91.5699" height="91.5699" fill="white"/>
</clipPath>
</defs>
</svg>
