<svg width="92" height="92" viewBox="0 0 92 92" fill="none" xmlns="http://www.w3.org/2000/svg">
<g clip-path="url(#clip0_352_170)">
<path d="M84.6362 1.32812H7.69748C4.17204 1.32812 1.30762 4.23261 1.30762 7.79811V84.5967C1.30762 88.1622 4.17204 91.0666 7.69748 91.0666H84.6362C88.1617 91.0666 91.0461 88.1622 91.0461 84.5967V7.79811C91.0461 4.23261 88.1617 1.32812 84.6362 1.32812ZM28.4295 78.2469H15.129V35.4207H28.4495V78.2469H28.4295ZM21.7792 29.5717C17.5126 29.5717 14.0673 26.1064 14.0673 21.8598C14.0673 17.6133 17.5126 14.1479 21.7792 14.1479C26.0258 14.1479 29.4911 17.6133 29.4911 21.8598C29.4911 26.1264 26.0458 29.5717 21.7792 29.5717ZM78.2864 78.2469H64.9859V57.4147C64.9859 52.447 64.8858 46.0572 58.0752 46.0572C51.1445 46.0572 50.0829 51.4655 50.0829 57.0541V78.2469H36.7824V35.4207H49.5421V41.2698H49.7224C51.5051 37.9046 55.8518 34.3591 62.3218 34.3591C75.7826 34.3591 78.2864 43.2328 78.2864 54.7706V78.2469Z" fill="#334075"/>
</g>
<defs>
<clipPath id="clip0_352_170">
<rect width="91.5699" height="91.5699" fill="white" transform="translate(0.391602 0.412598)"/>
</clipPath>
</defs>
</svg>
