<svg width="96" height="96" viewBox="0 0 96 96" fill="none" xmlns="http://www.w3.org/2000/svg">
<path fill-rule="evenodd" clip-rule="evenodd" d="M4.04395 48.0375C4.04395 23.6877 23.7834 3.94824 48.1332 3.94824C72.4833 3.94824 92.2224 23.6877 92.2224 48.0375C92.2224 72.3876 72.4833 92.1267 48.1332 92.1267C23.7834 92.1267 4.04395 72.3876 4.04395 48.0375ZM35.644 65.6322C37.8227 65.122 40.0975 64.8512 42.4409 64.8512C46.983 64.8512 51.2755 65.8687 55.1134 67.6842C57.2299 68.6855 59.7572 67.7814 60.7584 65.6649C61.7596 63.5485 60.8555 61.0211 58.7391 60.0199C53.7916 57.6794 48.263 56.3725 42.4409 56.3725C39.4419 56.3725 36.5185 56.7193 33.7107 57.3769C31.4311 57.9107 30.0158 60.1916 30.5497 62.4712C31.0836 64.7509 33.3644 66.1661 35.644 65.6322ZM42.4412 51.2853C39.0093 51.2853 35.6759 51.6842 32.4829 52.4365C30.204 52.9735 27.9212 51.5613 27.3843 49.2824C26.8474 47.0035 28.2596 44.7208 30.5385 44.1839C34.3641 43.2825 38.3498 42.8066 42.4412 42.8066C50.8421 42.8066 58.7867 44.8127 65.8106 48.3759C67.8986 49.4351 68.7323 51.9864 67.6734 54.0744C66.6141 56.1625 64.0627 56.9965 61.9747 55.9372C56.1123 52.9633 49.4789 51.2853 42.4412 51.2853ZM29.2765 39.2516C33.4975 38.2503 37.9047 37.7194 42.4413 37.7194C52.0425 37.7194 61.0758 40.0979 68.9962 44.2942C71.065 45.3903 73.631 44.6018 74.7271 42.5329C75.8232 40.4639 75.0344 37.8982 72.9656 36.8021C63.8521 31.9736 53.4595 29.2407 42.4413 29.2407C37.2408 29.2407 32.1771 29.8496 27.3196 31.0018C25.0415 31.5422 23.6328 33.827 24.1732 36.1052C24.7136 38.3833 26.9984 39.792 29.2765 39.2516Z" fill="#334075"/>
</svg>
