<svg width="91" height="92" viewBox="0 0 91 92" fill="none" xmlns="http://www.w3.org/2000/svg">
<g clip-path="url(#clip0_352_166)">
<path d="M47.2854 0.952808C52.2219 0.877441 57.1207 0.915124 62.0195 0.877441C62.321 6.64295 64.3935 12.5215 68.6141 16.5913C72.8346 20.7741 78.7885 22.696 84.5917 23.3366V38.5229C79.1653 38.3344 73.7013 37.2039 68.7648 34.8676C66.6169 33.8878 64.6196 32.6443 62.6601 31.3631C62.6224 42.3665 62.6978 53.37 62.5848 64.3358C62.2833 69.6114 60.5499 74.8493 57.4975 79.1829C52.5611 86.4181 44.007 91.1284 35.2268 91.2792C29.8382 91.5806 24.4495 90.111 19.8521 87.3978C12.2402 82.9135 6.88915 74.6986 6.09781 65.8808C6.02244 63.9966 5.98476 62.1125 6.06012 60.266C6.73842 53.1062 10.2806 46.2479 15.7824 41.5752C22.0378 36.1488 30.7802 33.5487 38.9575 35.0937C39.0328 40.6708 38.8067 46.2479 38.8067 51.825C35.0761 50.6191 30.7049 50.9583 27.4264 53.2193C25.0524 54.7643 23.2436 57.1383 22.3015 59.8138C21.5102 61.7356 21.7363 63.8459 21.774 65.8808C22.6784 72.0608 28.6323 77.2611 34.9631 76.6958C39.1836 76.6581 43.2156 74.2087 45.4013 70.6288C46.1172 69.3853 46.9086 68.1041 46.9463 66.6344C47.3231 59.8892 47.1724 53.1816 47.2101 46.4363C47.2477 31.25 47.1724 16.1014 47.2854 0.952808Z" fill="#334075"/>
</g>
<defs>
<clipPath id="clip0_352_166">
<rect width="90.4394" height="90.4394" fill="white" transform="translate(0.0874023 0.877441)"/>
</clipPath>
</defs>
</svg>
