<svg width="89" height="89" viewBox="0 0 89 89" fill="none" xmlns="http://www.w3.org/2000/svg">
<path d="M85.8826 23.6354C84.8887 19.8932 81.9605 16.946 78.2426 15.9459C71.5036 14.1284 44.4809 14.1284 44.4809 14.1284C44.4809 14.1284 17.4583 14.1284 10.7191 15.9459C7.00121 16.9462 4.073 19.8932 3.07917 23.6354C1.27344 30.4182 1.27344 44.57 1.27344 44.57C1.27344 44.57 1.27344 58.7218 3.07917 65.5046C4.073 69.2468 7.00121 72.0712 10.7191 73.0714C17.4583 74.8888 44.4809 74.8888 44.4809 74.8888C44.4809 74.8888 71.5034 74.8888 78.2426 73.0714C81.9605 72.0712 84.8887 69.2468 85.8826 65.5046C87.6883 58.7218 87.6883 44.57 87.6883 44.57C87.6883 44.57 87.6883 30.4182 85.8826 23.6354ZM35.6429 57.4188V31.7212L58.2285 44.5703L35.6429 57.4188Z" fill="#334075"/>
</svg>
